<?xml version="1.0" encoding="UTF-8"?>
<!--Generator: Apple Native CoreSVG 341-->
<!DOCTYPE svg
PUBLIC "-//W3C//DTD SVG 1.1//EN"
       "http://www.w3.org/Graphics/SVG/1.1/DTD/svg11.dtd">
<svg version="1.1" xmlns="http://www.w3.org/2000/svg" xmlns:xlink="http://www.w3.org/1999/xlink" viewBox="0 0 26.6943 26.3477">
 <g>
  <rect height="26.3477" opacity="0" width="26.6943" x="0" y="0"/>
  <path d="M26.333 13.1689C26.333 20.4248 20.4297 26.333 13.1641 26.333C5.90332 26.333 0 20.4248 0 13.1689C0 5.90332 5.90332 0 13.1641 0C20.4297 0 26.333 5.90332 26.333 13.1689ZM9.96582 5.58105L9.90234 9.74121C9.90234 9.97559 9.74121 10.1416 9.50684 10.1416C9.28711 10.1416 9.13574 9.97559 9.13574 9.72656L9.19434 5.70312C9.19434 5.35645 9.01855 5.14648 8.70605 5.14648C8.39844 5.14648 8.20312 5.35156 8.18359 5.69336L7.98828 9.8291C7.92969 11.1426 8.34473 11.6016 9.30176 12.0264C9.53613 12.1484 9.61914 12.29 9.61914 12.5732L9.4873 20.3564C9.46777 20.9424 9.87305 21.2891 10.4688 21.2891C11.084 21.2891 11.4795 20.9375 11.4648 20.3564L11.3379 12.5732C11.3379 12.29 11.416 12.1484 11.6504 12.0264C12.6025 11.6016 13.0322 11.1426 12.9639 9.8291L12.749 5.69336C12.7344 5.3418 12.5537 5.14648 12.251 5.14648C11.9336 5.14648 11.7627 5.35645 11.7627 5.70312L11.8115 9.72656C11.8115 9.97559 11.665 10.1416 11.4404 10.1416C11.2012 10.1416 11.0352 9.97559 11.0352 9.74121L10.9863 5.58105C10.9863 5.25391 10.7764 5.05859 10.4688 5.05859C10.1758 5.05859 9.96582 5.25391 9.96582 5.58105ZM16.2061 5.5127C15.0781 7.07031 14.2871 10.1611 14.2871 12.876L14.2871 13.3496C14.2871 13.8623 14.458 14.209 14.8682 14.4775L15.1758 14.6875C15.4395 14.8584 15.5322 15.0537 15.5225 15.4102L15.3857 20.3223C15.3711 20.9424 15.7812 21.2891 16.3721 21.2891C17.002 21.2891 17.3828 20.9521 17.3828 20.376L17.3828 5.58594C17.3828 5.23438 17.1484 5.05859 16.8701 5.05859C16.6162 5.05859 16.4307 5.19043 16.2061 5.5127Z" fill="white" fill-opacity="0.85"/>
 </g>
</svg>
