<?xml version="1.0" encoding="UTF-8"?>
<!--Generator: Apple Native CoreSVG 341-->
<!DOCTYPE svg
PUBLIC "-//W3C//DTD SVG 1.1//EN"
       "http://www.w3.org/Graphics/SVG/1.1/DTD/svg11.dtd">
<svg version="1.1" xmlns="http://www.w3.org/2000/svg" xmlns:xlink="http://www.w3.org/1999/xlink" viewBox="0 0 18.6895 32.1289">
 <g>
  <rect height="32.1289" opacity="0" width="18.6895" x="0" y="0"/>
  <path d="M4.67435 30.2832C5.83158 30.2832 6.55423 29.6143 6.53958 28.5156L6.28568 14.1064C6.27103 13.5059 6.43216 13.2373 6.8765 13.0322C8.65872 12.2217 9.43997 11.3525 9.32767 8.88672L8.96146 1.21582C8.9224 0.581055 8.56595 0.205078 7.98001 0.205078C7.40384 0.205078 7.06204 0.600586 7.06693 1.24023L7.16458 8.67188C7.16947 9.15527 6.89115 9.43848 6.47611 9.43848C6.03665 9.43848 5.76322 9.16992 5.75833 8.70117L5.62161 0.991211C5.61185 0.380859 5.25052 0 4.67435 0C4.09329 0 3.73685 0.380859 3.7222 0.991211L3.58548 8.70117C3.57572 9.16016 3.2974 9.43848 2.86771 9.43848C2.44779 9.43848 2.16947 9.15527 2.17435 8.67188L2.27201 1.24023C2.27689 0.600586 1.94486 0.205078 1.3638 0.205078C0.782748 0.205078 0.416537 0.585938 0.377474 1.21582L0.0112634 8.88672C-0.105924 11.3525 0.689974 12.2217 2.46244 13.0322C2.91165 13.2373 3.07279 13.5059 3.06302 14.1064L2.80423 28.5156C2.77982 29.624 3.52201 30.2832 4.67435 30.2832ZM14.8111 19.0332L14.5767 28.457C14.5474 29.624 15.2945 30.2832 16.437 30.2832C17.6138 30.2832 18.3267 29.6436 18.3267 28.5547L18.3267 1.01074C18.3267 0.361328 17.9068 0 17.3648 0C16.8667 0 16.5347 0.268555 16.1148 0.864258C14.0298 3.76953 12.5406 9.55078 12.5406 14.5898L12.5406 15.3564C12.5406 16.3184 12.8433 16.9189 13.6197 17.4512L14.1812 17.832C14.6499 18.1592 14.8306 18.4814 14.8111 19.0332Z" fill="white" fill-opacity="0.85"/>
 </g>
</svg>
