<?xml version="1.0" encoding="UTF-8"?>
<!--Generator: Apple Native CoreSVG 341-->
<!DOCTYPE svg
PUBLIC "-//W3C//DTD SVG 1.1//EN"
       "http://www.w3.org/Graphics/SVG/1.1/DTD/svg11.dtd">
<svg version="1.1" xmlns="http://www.w3.org/2000/svg" xmlns:xlink="http://www.w3.org/1999/xlink" viewBox="0 0 26.0938 24.11">
 <g>
  <rect height="24.11" opacity="0" width="26.0938" x="0" y="0"/>
  <path d="M4.89746 12.2747C7.91992 12.2747 9.79004 9.95538 9.79004 6.19562C9.79004 2.40655 7.90039 0.16046 4.89746 0.16046C1.89941 0.16046 0 2.41632 0 6.2005C0 9.97491 1.87988 12.2747 4.89746 12.2747ZM4.89746 9.97491C3.58398 9.97491 2.85645 8.64191 2.85645 6.2005C2.85645 3.78839 3.58887 2.45538 4.89746 2.45538C6.20605 2.45538 6.93848 3.77374 6.93848 6.2005C6.93848 8.64191 6.21094 9.97491 4.89746 9.97491ZM20.8398 23.9398C23.8623 23.9398 25.7324 21.6204 25.7324 17.8607C25.7324 14.0716 23.8428 11.8255 20.8398 11.8255C17.8418 11.8255 15.9424 14.0814 15.9424 17.8655C15.9424 21.64 17.8223 23.9398 20.8398 23.9398ZM20.8398 21.6448C19.5264 21.6448 18.7988 20.3118 18.7988 17.8655C18.7988 15.4534 19.5312 14.1253 20.8398 14.1253C22.1436 14.1253 22.876 15.4437 22.876 17.8655C22.876 20.3118 22.1484 21.6448 20.8398 21.6448ZM5.00488 23.8714C5.63477 24.2425 6.50879 24.1204 6.97266 23.4368L21.1035 2.18683C21.6113 1.42999 21.377 0.560851 20.708 0.179991C20.0928-0.171571 19.2871-0.0153213 18.7939 0.712218L4.6582 21.8939C4.14062 22.6556 4.33594 23.4857 5.00488 23.8714Z" fill="white" fill-opacity="0.85"/>
 </g>
</svg>
