<?xml version="1.0" encoding="UTF-8"?>
<!--Generator: Apple Native CoreSVG 341-->
<!DOCTYPE svg
PUBLIC "-//W3C//DTD SVG 1.1//EN"
       "http://www.w3.org/Graphics/SVG/1.1/DTD/svg11.dtd">
<svg version="1.1" xmlns="http://www.w3.org/2000/svg" xmlns:xlink="http://www.w3.org/1999/xlink" viewBox="0 0 29.3311 28.6328">
 <g>
  <rect height="28.6328" opacity="0" width="29.3311" x="0" y="0"/>
  <path d="M5.05859 28.6084L24.0283 28.6084C26.0547 28.6084 27.2412 27.4365 27.2412 25.4932L27.2412 15.9521C26.4795 16.3232 25.6055 16.5479 24.6777 16.5479C23.4033 16.5479 22.2412 16.1377 21.3086 15.459C20.3613 16.1377 19.1943 16.5479 17.9248 16.5479C16.6504 16.5479 15.4785 16.1377 14.5459 15.459C13.6133 16.1377 12.4463 16.5479 11.167 16.5479C9.89258 16.5479 8.73047 16.1377 7.79297 15.4541C6.8457 16.1377 5.67871 16.5479 4.40918 16.5479C3.48633 16.5479 2.61719 16.3428 1.8457 15.9912L1.8457 25.4932C1.8457 27.4365 3.03223 28.6084 5.05859 28.6084ZM6.6748 26.1865L6.6748 20.0977C6.6748 19.5068 7.06055 19.1309 7.65137 19.1309L12.6318 19.1309C13.2178 19.1309 13.5986 19.5068 13.5986 20.0977L13.5986 26.1865ZM17.2754 23.7549C16.6895 23.7549 16.2988 23.3789 16.2988 22.793L16.2988 19.292C16.2988 18.7061 16.6895 18.3252 17.2754 18.3252L22.3779 18.3252C22.9639 18.3252 23.3398 18.7061 23.3398 19.292L23.3398 22.793C23.3398 23.3789 22.9639 23.7549 22.3779 23.7549ZM3.35449 3.13477L25.6104 3.13477L25.6104 2.94434C25.6104 1.1377 24.4482 0 22.6172 0L6.34766 0C4.5166 0 3.35449 1.1377 3.35449 2.94434ZM0.258789 9.42871L28.7012 9.42871C28.6475 9.32129 28.5938 9.21387 28.5205 9.10645L25.9863 4.64844L2.97363 4.64844L0.43457 9.10645C0.371094 9.21387 0.3125 9.32129 0.258789 9.42871ZM4.35059 15.0195C5.74707 15.0195 6.95312 14.3896 7.73438 13.3789C8.49121 14.3896 9.7168 15.0195 11.1084 15.0195C12.5049 15.0195 13.7207 14.3848 14.4873 13.3789C15.2539 14.3848 16.4648 15.0195 17.8662 15.0195C19.2578 15.0195 20.4785 14.3896 21.25 13.3838C22.0068 14.3896 23.2227 15.0195 24.6191 15.0195C27.0361 15.0195 28.9697 13.1152 28.9697 11.0938L28.9697 10.9424L0 10.9424L0 11.2354C0 13.2617 1.93359 15.0195 4.35059 15.0195Z" fill="white" fill-opacity="0.85"/>
 </g>
</svg>
