<?xml version="1.0" encoding="UTF-8"?>
<!--Generator: Apple Native CoreSVG 341-->
<!DOCTYPE svg
PUBLIC "-//W3C//DTD SVG 1.1//EN"
       "http://www.w3.org/Graphics/SVG/1.1/DTD/svg11.dtd">
<svg version="1.1" xmlns="http://www.w3.org/2000/svg" xmlns:xlink="http://www.w3.org/1999/xlink" viewBox="0 0 19.6436 31.1328">
 <g>
  <rect height="31.1328" opacity="0" width="19.6436" x="0" y="0"/>
  <path d="M9.62891 31.1182C14.4775 31.1133 17.3535 29.873 17.3535 27.7246C17.3535 25.7764 14.9463 24.5703 10.8594 24.3652L10.8594 19.3262C15.9619 18.877 19.2822 15.5469 19.2822 10.7031C19.2822 8.00781 18.1592 4.47266 16.5186 1.95312C15.6934 0.693359 13.2031 0 9.63867 0C6.05957 0 3.56445 0.693359 2.74902 1.95312C1.1084 4.46777 0 7.99805 0 10.7031C0 15.5566 3.3252 18.877 8.42773 19.3262L8.42773 24.3652C4.33594 24.5654 1.92871 25.7764 1.92871 27.7246C1.92871 29.873 4.79004 31.1133 9.62891 31.1182ZM9.63867 3.52539C6.97754 3.52539 5 3.13965 5 2.70996C5 2.28027 6.98242 1.9043 9.63867 1.9043C12.2949 1.9043 14.2773 2.28027 14.2773 2.70996C14.2773 3.13965 12.2998 3.52539 9.63867 3.52539Z" fill="white" fill-opacity="0.85"/>
 </g>
</svg>
